<?xml version="1.0" encoding="UTF-8" standalone="no"?>
<!-- Created with Inkscape (http://www.inkscape.org/) -->

<svg
   xmlns:dc="http://purl.org/dc/elements/1.1/"
   xmlns:cc="http://creativecommons.org/ns#"
   xmlns:rdf="http://www.w3.org/1999/02/22-rdf-syntax-ns#"
   xmlns:svg="http://www.w3.org/2000/svg"
   xmlns="http://www.w3.org/2000/svg"
   xmlns:xlink="http://www.w3.org/1999/xlink"
   version="1.0"
   width="100%"
   height="100%"
   viewBox="0 0 381.63 313.15"
   id="svg2">
  <defs
     id="defs5">
    <linearGradient
       id="linearGradient3012">
      <stop
         id="stop3014"
         style="stop-color:#53555a;stop-opacity:1"
         offset="0" />
      <stop
         id="stop3016"
         style="stop-color:#e7e8ec;stop-opacity:1"
         offset="1" />
    </linearGradient>
    <linearGradient
       id="linearGradient2894">
      <stop
         id="stop2896"
         style="stop-color:#5e6169;stop-opacity:1"
         offset="0" />
      <stop
         id="stop2898"
         style="stop-color:#1c2125;stop-opacity:1"
         offset="1" />
    </linearGradient>
    <filter
       color-interpolation-filters="sRGB"
       id="filter2820">
      <feGaussianBlur
         stdDeviation="0.49668993"
         id="feGaussianBlur2822" />
    </filter>
    <clipPath
       id="clipPath2834">
      <path
         d="m 1345.5,1395.2 h 233.3 c 1,0 1.8,0.8 1.8,1.8 v 222.3 c 0,1 -0.8,1.8 -1.8,1.8 -77.6,-4.4 -155.6,-3.6 -233.3,0 -1,0 -1.8,-0.8 -1.8,-1.8 V 1397 c 0,-1 0.8,-1.8 1.8,-1.8 z"
         id="use2836"
         style="fill:url(#linearGradient3043)" />
    </clipPath>
    <filter
       color-interpolation-filters="sRGB"
       id="filter3052">
      <feGaussianBlur
         stdDeviation="0.89271179"
         id="feGaussianBlur3054" />
    </filter>
    <filter
       color-interpolation-filters="sRGB"
       id="filter3368">
      <feGaussianBlur
         stdDeviation="0.59514119"
         id="feGaussianBlur3370" />
    </filter>
    <linearGradient
       x1="1378.2"
       y1="1591.7"
       x2="1378.2"
       y2="1394.7"
       id="linearGradient3043"
       gradientUnits="userSpaceOnUse">
      <stop
         id="stop2792"
         style="stop-color:#8c909b;stop-opacity:1"
         offset="0" />
      <stop
         id="stop2794"
         style="stop-color:#787c87;stop-opacity:1"
         offset="1" />
    </linearGradient>
    <linearGradient
       x1="978.64001"
       y1="1373.6"
       x2="978.64001"
       y2="164.23"
       id="linearGradient2519"
       gradientUnits="userSpaceOnUse"
       gradientTransform="translate(-244,-56.959)">
      <stop
         id="stop2912"
         style="stop-color:#1d2025;stop-opacity:1"
         offset="0" />
      <stop
         id="stop2914"
         style="stop-color:#31343b;stop-opacity:1"
         offset="1" />
    </linearGradient>
    <linearGradient
       x1="1461.9"
       y1="1332.2"
       x2="1461.9"
       y2="216.14"
       id="linearGradient2521"
       xlink:href="#linearGradient2894"
       gradientUnits="userSpaceOnUse"
       gradientTransform="translate(-244,-56.959)" />
    <linearGradient
       x1="522.54999"
       y1="160.91"
       x2="1418.9"
       y2="160.91"
       id="linearGradient2523"
       gradientUnits="userSpaceOnUse"
       gradientTransform="translate(-244,-56.959)"
       spreadMethod="reflect">
      <stop
         id="stop2922"
         style="stop-color:#abafb8;stop-opacity:1"
         offset="0" />
      <stop
         id="stop2924"
         style="stop-color:#bebdc5;stop-opacity:1"
         offset="1" />
    </linearGradient>
    <linearGradient
       x1="512.04999"
       y1="160.91"
       x2="1418.9"
       y2="160.91"
       id="linearGradient2525"
       gradientUnits="userSpaceOnUse"
       gradientTransform="translate(-244,1175.6)"
       spreadMethod="reflect">
      <stop
         id="stop2934"
         style="stop-color:#8f919d;stop-opacity:1"
         offset="0" />
      <stop
         id="stop2936"
         style="stop-color:#878a95;stop-opacity:1"
         offset="1" />
    </linearGradient>
    <radialGradient
       cx="809.29999"
       cy="-95.417999"
       r="883.59003"
       id="radialGradient2527"
       xlink:href="#linearGradient2894"
       gradientUnits="userSpaceOnUse"
       gradientTransform="matrix(7.8634e-8,1.0762,-1.2042,8.7983e-8,1094.5,-704.37)" />
    <linearGradient
       x1="1474.5"
       y1="165.47"
       x2="1474.5"
       y2="159.47"
       id="linearGradient2545"
       gradientUnits="userSpaceOnUse"
       gradientTransform="translate(-244,1175.6)"
       spreadMethod="reflect">
      <stop
         id="stop3577"
         style="stop-color:#575a62;stop-opacity:0.99967003"
         offset="0" />
      <stop
         id="stop3579"
         style="stop-color:#878a95;stop-opacity:0"
         offset="1" />
    </linearGradient>
    <linearGradient
       x1="1474.5"
       y1="165"
       x2="1474.5"
       y2="155.99001"
       id="linearGradient2547"
       gradientUnits="userSpaceOnUse"
       gradientTransform="translate(-244,1175.6)">
      <stop
         id="stop3464"
         style="stop-color:#6b6f7a;stop-opacity:0"
         offset="0" />
      <stop
         id="stop3466"
         style="stop-color:#ebebed;stop-opacity:1"
         offset="1" />
    </linearGradient>
    <linearGradient
       x1="1282.1"
       y1="1665"
       x2="1667.4"
       y2="1666.7"
       id="linearGradient2564"
       gradientUnits="userSpaceOnUse"
       gradientTransform="matrix(0.20153,0,0,0.20153,98.831,36.358)">
      <stop
         id="stop5106"
         style="stop-color:#16191e;stop-opacity:1"
         offset="0" />
      <stop
         id="stop5116"
         style="stop-color:#3a3d43;stop-opacity:1"
         offset="0.16349" />
      <stop
         id="stop3708"
         style="stop-color:#16191e;stop-opacity:1"
         offset="0.23887999" />
      <stop
         id="stop5112"
         style="stop-color:#4a4f56;stop-opacity:1"
         offset="0.46134001" />
      <stop
         id="stop3710"
         style="stop-color:#16191e;stop-opacity:1"
         offset="0.66193998" />
      <stop
         id="stop5114"
         style="stop-color:#36393f;stop-opacity:1"
         offset="0.75" />
      <stop
         id="stop5108"
         style="stop-color:#16191e;stop-opacity:1"
         offset="1" />
    </linearGradient>
    <linearGradient
       x1="797.46997"
       y1="1651.3"
       x2="2124.1001"
       y2="1651.3"
       id="linearGradient2566"
       gradientUnits="userSpaceOnUse"
       gradientTransform="matrix(0.20153,0,0,0.20153,98.831,36.358)">
      <stop
         id="stop3398"
         style="stop-color:#000000;stop-opacity:1"
         offset="0" />
      <stop
         id="stop3400"
         style="stop-color:#000000;stop-opacity:0"
         offset="1" />
    </linearGradient>
    <linearGradient
       x1="2051"
       y1="1695.5"
       x2="2040.9"
       y2="1651.3"
       id="linearGradient2568"
       xlink:href="#linearGradient3012"
       gradientUnits="userSpaceOnUse" />
    <linearGradient
       x1="1470.4"
       y1="1648.9"
       x2="1991.5"
       y2="1648.9"
       id="linearGradient2570"
       gradientUnits="userSpaceOnUse"
       gradientTransform="translate(0.070804,0)">
      <stop
         id="stop3392"
         style="stop-color:#9c9eaa;stop-opacity:1"
         offset="0" />
      <stop
         id="stop3412"
         style="stop-color:#32373b;stop-opacity:1"
         offset="0.16566999" />
      <stop
         id="stop3414"
         style="stop-color:#9c9ea9;stop-opacity:1"
         offset="0.20498" />
      <stop
         id="stop3416"
         style="stop-color:#363b3f;stop-opacity:1"
         offset="0.23579" />
      <stop
         id="stop3418"
         style="stop-color:#515257;stop-opacity:1"
         offset="0.74124002" />
      <stop
         id="stop3394"
         style="stop-color:#4a4f53;stop-opacity:1"
         offset="1" />
    </linearGradient>
    <linearGradient
       x1="1470.4"
       y1="1648.9"
       x2="1991.5"
       y2="1648.9"
       id="linearGradient2574"
       gradientUnits="userSpaceOnUse"
       gradientTransform="translate(0.070804,0)">
      <stop
         id="stop3395"
         style="stop-color:#9c9eaa;stop-opacity:1"
         offset="0" />
      <stop
         id="stop3397"
         style="stop-color:#32373b;stop-opacity:1"
         offset="0.16566999" />
      <stop
         id="stop3399"
         style="stop-color:#868896;stop-opacity:1"
         offset="0.20498" />
      <stop
         id="stop3401"
         style="stop-color:#363b3f;stop-opacity:1"
         offset="0.23579" />
      <stop
         id="stop3403"
         style="stop-color:#515257;stop-opacity:1"
         offset="0.74124002" />
      <stop
         id="stop3405"
         style="stop-color:#4a4f53;stop-opacity:1"
         offset="1" />
    </linearGradient>
    <linearGradient
       x1="1467"
       y1="1639.5"
       x2="1467"
       y2="1622.3"
       id="linearGradient2576"
       gradientUnits="userSpaceOnUse"
       gradientTransform="matrix(0.45989,0,0,0.34382,-277.84,-196.49)">
      <stop
         id="stop3436"
         style="stop-color:#b5b7bb;stop-opacity:1"
         offset="0" />
      <stop
         id="stop3438"
         style="stop-color:#e5e6ea;stop-opacity:1"
         offset="1" />
    </linearGradient>
    <linearGradient
       x1="1455.6"
       y1="1638.9"
       x2="1455.6"
       y2="1623.6"
       id="linearGradient2578"
       gradientUnits="userSpaceOnUse"
       gradientTransform="matrix(0.45989,0,0,0.34382,-277.84,-196.49)">
      <stop
         id="stop3444"
         style="stop-color:#888b95;stop-opacity:1"
         offset="0" />
      <stop
         id="stop3446"
         style="stop-color:#f0f1f5;stop-opacity:1"
         offset="1" />
    </linearGradient>
    <linearGradient
       x1="1496.6"
       y1="1399.2"
       x2="1496.6"
       y2="1421.7"
       id="linearGradient2608"
       gradientUnits="userSpaceOnUse"
       gradientTransform="translate(0,220.22)">
      <stop
         id="stop4263"
         style="stop-color:#979aa4;stop-opacity:1"
         offset="0" />
      <stop
         id="stop4265"
         style="stop-color:#979aa4;stop-opacity:0"
         offset="1" />
    </linearGradient>
    <linearGradient
       x1="1364.7"
       y1="1540.1"
       x2="1367.4"
       y2="1342.2"
       id="linearGradient2610"
       gradientUnits="userSpaceOnUse">
      <stop
         id="stop2963"
         style="stop-color:#979aa4;stop-opacity:1"
         offset="0" />
      <stop
         id="stop2965"
         style="stop-color:#50525a;stop-opacity:1"
         offset="1" />
    </linearGradient>
    <linearGradient
       x1="1393"
       y1="1621"
       x2="1393"
       y2="1503.5"
       id="linearGradient3196"
       gradientUnits="userSpaceOnUse">
      <stop
         id="stop2826"
         style="stop-color:#4c5059;stop-opacity:1"
         offset="0" />
      <stop
         id="stop2828"
         style="stop-color:#818590;stop-opacity:1"
         offset="1" />
    </linearGradient>
    <radialGradient
       cx="572.38"
       cy="306.60999"
       r="2.0625"
       id="radialGradient3200"
       gradientUnits="userSpaceOnUse">
      <stop
         id="stop2988"
         style="stop-color:#cccccc;stop-opacity:1"
         offset="0" />
      <stop
         id="stop2990"
         style="stop-color:#c1c1c1;stop-opacity:0"
         offset="1" />
    </radialGradient>
  </defs>
  <path
     d="m 526.81,374.78 -26.73,6.02 h -2.45 l -77.38,-7.75 c -2.45,-0.06 -5.01,-0.25 -7.49,0.03 -10.16,1.15 -28.16,1.24 -39.25,-0.1 l -7.77,0.07 -79.09,7.68 h -2.21 l -24.79,-5.63 3.92,-4.63 c 1.72,-2.04 4.2,-2.7 7.55,-3 l 91.27,-8.05 c 1.55,-0.13 2.96,-0.88 4.21,-1.92 h 21.16 35.98 c 1.3,1.14 2.89,1.95 5.06,2.14 l 84.55,7.44 c 4.53,0.4 7.84,0.74 10.32,3.81 l 3.14,3.89 z"
     transform="matrix(0.97654,0,0,0.97654,-193.05,-62.533)"
     id="path4533"
     style="fill:url(#linearGradient2564);fill-rule:evenodd;stroke:url(#linearGradient2566);stroke-width:0.20152999px" />
  <g
     transform="matrix(-0.1968,0,0,0.1968,478.07,-27.028)"
     id="use4535">
    <path
       d="m 2123.6,1677.2 -132.6,31.9 h -12.2 c -13.3,-23 -30.8,-28.3 -55.6,-30.6 l -328.3,-29.8 c -12.1,-1.2 -24.9,-1.3 -37.2,0.1 -23.1,2.6 -66.9,4.3 -99.2,4.5 l -0.1,-61.8 h 153.8 c 6.4,5.7 14.3,9.7 25.1,10.6 l 419.6,37 c 22.4,1.9 38.8,3.6 51.2,18.9 l 15.5,19.2 z"
       id="path3029"
       style="fill:url(#linearGradient2568);fill-rule:evenodd;stroke-width:1px" />
    <path
       d="m 1991.2,1709.2 h -12.8 c -13.3,-23.1 -30.3,-26.4 -55.2,-28.7 L 1595,1650.7 c -12.1,-1.1 -24.9,-1.3 -37.2,0.1 -23.1,2.6 -69.7,3.9 -99.2,4.5 v -12.8 l 90.5,-3.1 c 16.2,-0.6 34.3,-3.5 47.2,-2.4 l 332.9,29.1 c 22.4,1.9 41.2,10.3 51.7,26.9 l 10.3,16.2 z"
       id="path3031"
       style="fill:url(#linearGradient2570);fill-rule:evenodd;stroke-width:1px" />
    <path
       d="m 1460.5,1642.5 88.5,-3.1 c 16.2,-0.6 34.3,-3.5 47.2,-2.4 l 332.9,29.1 c 22.5,1.9 41.2,10.3 51.7,26.9 l 10.3,16.2"
       id="path3033"
       style="fill:none;stroke:#ffffff;stroke-width:1px;filter:url(#filter3052)" />
    <path
       d="m 1458.3,1642.5 92.6,-3.1 c 16.1,-0.6 34.2,-3.5 47.1,-2.4 l 332.9,29.1 c 22.5,1.9 41.2,10.3 51.8,26.9 l 10.3,16.2"
       id="path3035"
       style="fill:none;stroke:#ffffff;stroke-width:1.20000005;filter:url(#filter3368)" />
  </g>
  <g
     transform="matrix(0.1968,0,0,0.1968,-96.541,-27.028)"
     id="g4537">
    <path
       d="m 2123.6,1677.2 -132.6,31.9 h -12.2 c -13.3,-23 -30.8,-28.3 -55.6,-30.6 l -328.3,-29.8 c -12.1,-1.2 -24.9,-1.3 -37.2,0.1 -23.1,2.6 -66.9,4.3 -99.2,4.5 l -0.1,-61.8 h 153.8 c 6.4,5.7 14.3,9.7 25.1,10.6 l 419.6,37 c 22.4,1.9 38.8,3.6 51.2,18.9 l 15.5,19.2 z"
       id="path4539"
       style="fill:url(#linearGradient2568);fill-rule:evenodd;stroke-width:1px" />
    <path
       d="m 1991.2,1709.2 h -12.8 c -13.3,-23.1 -30.3,-26.4 -55.2,-28.7 L 1595,1650.7 c -12.1,-1.1 -24.9,-1.3 -37.2,0.1 -23.1,2.6 -69.7,3.9 -99.2,4.5 v -12.8 l 90.5,-3.1 c 16.2,-0.6 34.3,-3.5 47.2,-2.4 l 332.9,29.1 c 22.4,1.9 41.2,10.3 51.7,26.9 l 10.3,16.2 z"
       id="path4541"
       style="fill:url(#linearGradient2574);fill-rule:evenodd;stroke-width:1px" />
    <path
       d="m 1460.5,1642.5 88.5,-3.1 c 16.2,-0.6 34.3,-3.5 47.2,-2.4 l 332.9,29.1 c 22.5,1.9 41.2,10.3 51.7,26.9 l 10.3,16.2"
       id="path4543"
       style="fill:none;stroke:#ffffff;stroke-width:1px;filter:url(#filter3052)" />
    <path
       d="m 1458.3,1642.5 92.6,-3.1 c 16.1,-0.6 34.2,-3.5 47.1,-2.4 l 332.9,29.1 c 22.5,1.9 41.2,10.3 51.8,26.9 l 10.3,16.2"
       id="path4545"
       style="fill:none;stroke:#ffffff;stroke-width:1.20000005;filter:url(#filter3368)" />
  </g>
  <path
     d="m 420.27,362.9 c 0,1.8 -11.73,3.26 -26.21,3.26 -14.48,0 -26.21,-1.46 -26.21,-3.26 0,-1.81 11.73,-3.27 26.21,-3.27 14.48,0 26.21,1.46 26.21,3.27 z"
     transform="matrix(0.97654,0,0,0.97654,-193.05,-62.533)"
     id="path4547"
     style="fill:url(#linearGradient2576);stroke:url(#linearGradient2578);stroke-width:0.20152999" />
  <path
     d="m 1345.5,1615.4 h 233.3 c 1,0 1.8,0.8 1.8,1.8 v 41.6 c 0,1.1 -236.9,-17.9 -236.9,0 v -41.6 c 0,-1 0.8,-1.8 1.8,-1.8 z"
     transform="matrix(0.1968,0,0,0.1968,-96.541,-27.028)"
     id="path2967"
     style="fill:url(#linearGradient2608)" />
  <path
     d="m 1345.5,1395.2 h 233.3 c 1,0 1.8,0.8 1.8,1.8 v 222.3 c 0,1 -0.8,1.8 -1.8,1.8 -77.6,-4.4 -155.6,-3.6 -233.3,0 -1,0 -1.8,-0.8 -1.8,-1.8 V 1397 c 0,-1 0.8,-1.8 1.8,-1.8 z"
     transform="matrix(0.1968,0,0,0.1968,-96.541,-27.028)"
     id="path4551"
     style="fill:url(#linearGradient2610)" />
  <path
     d="m 1345.5,1395.2 h 233.3 c 1,0 1.8,0.8 1.8,1.8 v 224.3 c 0,1 -0.8,1.8 -1.8,1.8 -78.7,-4.1 -156.5,-4.3 -233.3,0 -1,0 -1.8,-0.8 -1.8,-1.8 V 1397 c 0,-1 0.8,-1.8 1.8,-1.8 z"
     transform="matrix(0.1968,0,0,0.1968,-96.541,-27.028)"
     clip-path="url(#clipPath2834)"
     id="path4553"
     style="fill:none;stroke:url(#linearGradient3196);stroke-width:4;filter:url(#filter2820)" />
  <path
     d="m 574.44,306.61 c 0,0.34 -0.08,0.65 -0.22,0.93 -1.12,0.63 -2.03,0.78 -3.81,-0.3 -0.06,-0.2 -0.1,-0.41 -0.1,-0.63 0.44,-2 1.63,0.76 3.84,-1.05 0.18,0.31 0.29,0.67 0.29,1.05 z"
     transform="matrix(0.4185,-0.4185,0.69052,0.69052,-86.648,262.44)"
     id="path2984"
     style="fill:url(#radialGradient3200);stroke-width:1.25;stroke-linecap:round;stroke-linejoin:round;stroke-dashoffset:0.5" />
  <use
     transform="matrix(-1,0,0,1,381.56,4.1606e-7)"
     id="use3342"
     x="0"
     y="0"
     width="825.92938"
     height="463.36414"
     xlink:href="#path2984" />
  <rect
     width="1893.6"
     height="1223"
     rx="5.3441"
     ry="5.3441"
     x="262.62"
     y="108.04"
     transform="matrix(0.1968,0,0,0.1968,-47.208,-15.818)"
     id="rect4555"
     style="fill:url(#linearGradient2519)" />
  <rect
     width="1779.6"
     height="1118.3"
     rx="5.3441"
     ry="5.3441"
     x="319.62"
     y="160.39999"
     transform="matrix(0.1968,0,0,0.1968,-47.208,-15.818)"
     id="rect4557"
     style="fill:url(#linearGradient2521)" />
  <rect
     width="1890.6"
     height="9"
     rx="1.8441"
     ry="1.8441"
     x="264.12"
     y="99.041"
     transform="matrix(0.1968,0,0,0.1968,-47.208,-15.818)"
     id="rect4559"
     style="fill:url(#linearGradient2523)" />
  <rect
     width="1890.6"
     height="9"
     rx="1.8441"
     ry="1.8441"
     x="264.12"
     y="1331.6"
     transform="matrix(0.1968,0,0,0.1968,-47.208,-15.818)"
     id="rect4561"
     style="fill:url(#linearGradient2525)" />
  <rect
     width="1766.2"
     height="1105.8"
     rx="5.3441"
     ry="5.3441"
     x="326.34"
     y="166.62"
     transform="matrix(0.1968,0,0,0.1968,-47.208,-15.818)"
     id="rect4563"
     style="fill:url(#radialGradient2527)" />
  <rect
     width="1890.6"
     height="9"
     rx="1.8441"
     ry="1.8441"
     x="264.12"
     y="1331.6"
     transform="matrix(0.1968,0,0,0.1968,-47.208,-15.818)"
     id="rect4581"
     style="fill:url(#linearGradient2545)" />
  <rect
     width="1890.6"
     height="9"
     rx="1.8441"
     ry="1.8441"
     x="264.12"
     y="1331.6"
     transform="matrix(0.1968,0,0,0.1968,-47.208,-15.818)"
     id="rect4267"
     style="opacity:0.65639002;fill:url(#linearGradient2547)" />
  <metadata
     id="metadata107">
    <rdf:RDF>
      <cc:Work>
        <dc:format>image/svg+xml</dc:format>
        <dc:type
           rdf:resource="http://purl.org/dc/dcmitype/StillImage" />
        <cc:license
           rdf:resource="http://creativecommons.org/licenses/publicdomain/" />
        <dc:publisher>
          <cc:Agent
             rdf:about="http://openclipart.org/">
            <dc:title>Openclipart</dc:title>
          </cc:Agent>
        </dc:publisher>
        <dc:title></dc:title>
        <dc:date>2007-10-14T00:57:15</dc:date>
        <dc:description>Andy's monitor without the background and without the &quot;linux&quot; tag</dc:description>
        <dc:source>https://openclipart.org/detail/6977/lcd-monitor-by-molumen</dc:source>
        <dc:creator>
          <cc:Agent>
            <dc:title>molumen</dc:title>
          </cc:Agent>
        </dc:creator>
        <dc:subject>
          <rdf:Bag>
            <rdf:li>computer</rdf:li>
            <rdf:li>dell</rdf:li>
            <rdf:li>dvi</rdf:li>
            <rdf:li>flat</rdf:li>
            <rdf:li>hardware</rdf:li>
            <rdf:li>lcd</rdf:li>
            <rdf:li>monitor</rdf:li>
            <rdf:li>plasma</rdf:li>
            <rdf:li>remix</rdf:li>
            <rdf:li>screen</rdf:li>
            <rdf:li>tool</rdf:li>
            <rdf:li>wide</rdf:li>
          </rdf:Bag>
        </dc:subject>
      </cc:Work>
      <cc:License
         rdf:about="http://creativecommons.org/licenses/publicdomain/">
        <cc:permits
           rdf:resource="http://creativecommons.org/ns#Reproduction" />
        <cc:permits
           rdf:resource="http://creativecommons.org/ns#Distribution" />
        <cc:permits
           rdf:resource="http://creativecommons.org/ns#DerivativeWorks" />
      </cc:License>
    </rdf:RDF>
  </metadata>
</svg>
